# xmcd CD database file
#
# Track frame offsets:
#	150
#	20167
#	34222
#	47582
#	58110
#	71490
#	88590
#	97837
#	109615
#	123037
#	138935
#	155950
#	178537
#
# Disc length: 2623 seconds
#
# Revision: 0
# Processed by: cddbd v1.5.2PL0 Copyright (c) Steve Scherf et al.
# Submitted via: CDex 1.70beta2
#
DISCID=aa0a3d0d
DTITLE=Joe Augustine - Swinging on a Star
DYEAR=1993
DGENRE=New Age
TTITLE0=I'll be Seeing You - As Time Goes By
TTITLE1=Stardust
TTITLE2=Memories of You
TTITLE3=A Little "R" and "R"
TTITLE4=Fill My Heart With Song
TTITLE5=Not Exactly Paris
TTITLE6=Swingin on a Star
TTITLE7=It's the Talk of the Town
TTITLE8=Dream a Little Dream of Me
TTITLE9=Blues in the Night
TTITLE10=St. Louis Blues
TTITLE11=God Bless the Child
TTITLE12=Always
EXTD=YEAR: 1993
EXTT0=
EXTT1=
EXTT2=
EXTT3=
EXTT4=
EXTT5=
EXTT6=
EXTT7=
EXTT8=
EXTT9=
EXTT10=
EXTT11=
EXTT12=
PLAYORDER=
